<svg xmlns="http://www.w3.org/2000/svg" style="display:none">
  <symbol id="orthodox-cross" viewBox="0 0 24 24">
    <path d="M12 2v20"/>
    <path d="M7 8h10"/>
    <path d="M9 4h6"/>
    <path d="M8 21h8"/>
  </symbol>
  <symbol id="heart-give" viewBox="0 0 24 24">
    <path d="M7 13V7.5a1.5 1.5 0 0 1 3 0V13"/>
    <path d="M10 13V5.5a1.5 1.5 0 0 1 3 0V13"/>
    <path d="M13 13V6.5a1.5 1.5 0 0 1 3 0V14"/>
    <path d="M16 14V10a1.5 1.5 0 0 1 3 0v5c0 4-2.6 6-6.3 6H12a7 7 0 0 1-7-7v-1.5a1.5 1.5 0 0 1 2 0V13"/>
  </symbol>
  <symbol id="giving-hand" viewBox="0 0 24 24">
    <path d="M7 13V7.5a1.5 1.5 0 0 1 3 0V13"/>
    <path d="M10 13V5.5a1.5 1.5 0 0 1 3 0V13"/>
    <path d="M13 13V6.5a1.5 1.5 0 0 1 3 0V14"/>
    <path d="M16 14V10a1.5 1.5 0 0 1 3 0v5c0 4-2.6 6-6.3 6H12a7 7 0 0 1-7-7v-1.5a1.5 1.5 0 0 1 2 0V13"/>
  </symbol>
  <symbol id="user" viewBox="0 0 24 24">
    <circle cx="12" cy="8" r="4"/>
    <path d="M4 21c1.8-4 4.5-6 8-6s6.2 2 8 6"/>
  </symbol>
  <symbol id="menu" viewBox="0 0 24 24">
    <path d="M4 7h16"/>
    <path d="M4 12h16"/>
    <path d="M4 17h16"/>
  </symbol>
  <symbol id="close" viewBox="0 0 24 24">
    <path d="M6 6 18 18"/>
    <path d="m18 6-12 12"/>
  </symbol>
  <symbol id="arrow-right" viewBox="0 0 24 24">
    <path d="M5 12h13"/>
    <path d="m13 6 6 6-6 6"/>
  </symbol>
  <symbol id="church" viewBox="0 0 24 24">
    <path d="M3 21h18"/>
    <path d="M5 21V9l7-4 7 4v12"/>
    <path d="M9 13h6"/>
    <path d="M12 5V2"/>
  </symbol>
  <symbol id="mission" viewBox="0 0 24 24">
    <path d="M5 21h14"/>
    <path d="M7 21V10l5-3 5 3v11"/>
    <path d="M10 14h4"/>
    <path d="M12 7V3"/>
  </symbol>
  <symbol id="monastery" viewBox="0 0 24 24">
    <path d="M3 21h18"/>
    <path d="M6 21v-7a6 6 0 0 1 12 0v7"/>
    <path d="M12 8V3"/>
    <path d="M9 3h6"/>
  </symbol>
  <symbol id="cathedral" viewBox="0 0 24 24">
    <path d="M2 21h20"/>
    <path d="M5 21V11l4-3 3 3 3-3 4 3v10"/>
    <path d="M12 8V3"/>
    <path d="M10 4h4"/>
  </symbol>
  <symbol id="candle" viewBox="0 0 24 24">
    <path d="M12 3c2 3 3 5 3 7a3 3 0 0 1-6 0c0-2 1-4 3-7Z"/>
    <path d="M12 13v8"/>
    <path d="M9 21h6"/>
  </symbol>
  <symbol id="commemoration" viewBox="0 0 24 24">
    <path d="M6 3h12v18H6z"/>
    <path d="M9 7h6"/>
    <path d="M9 11h6"/>
    <path d="M9 15h4"/>
  </symbol>
  <symbol id="campaigns" viewBox="0 0 24 24">
    <path d="M4 20h16"/>
    <path d="M8 16V8"/>
    <path d="M12 16V4"/>
    <path d="M16 16v-6"/>
  </symbol>
  <symbol id="grid" viewBox="0 0 24 24">
    <rect x="3" y="3" width="8" height="8"/>
    <rect x="13" y="3" width="8" height="8"/>
    <rect x="3" y="13" width="8" height="8"/>
    <rect x="13" y="13" width="8" height="8"/>
  </symbol>
  <symbol id="mail" viewBox="0 0 24 24">
    <rect x="3" y="5" width="18" height="14" rx="2"/>
    <path d="m4 7 8 6 8-6"/>
  </symbol>
  <symbol id="shield" viewBox="0 0 24 24">
    <path d="M12 3 5 6v5c0 5 3.5 8.5 7 10 3.5-1.5 7-5 7-10V6l-7-3Z"/>
    <path d="M12 8v7"/>
    <path d="M9 11h6"/>
  </symbol>
  <symbol id="handshake" viewBox="0 0 24 24">
    <path d="M7 12 4 9l3-3 4 4"/>
    <path d="m17 12 3-3-3-3-4 4"/>
    <path d="M8 13l2 2a2 2 0 0 0 3 0l4-4"/>
    <path d="m8 13-2 2"/>
  </symbol>
</svg>
